<svg xmlns="http://www.w3.org/2000/svg" xmlns:xlink="http://www.w3.org/1999/xlink" viewBox="0 0 24 24">
    <g>
        <path style=" stroke:none;fill-rule:nonzero;fill:rgb(100%,100%,100%);fill-opacity:1;" d="M 10 2 C 5.59375 2 2 5.59375 2 10 C 2 12.203125 2.898438 14.203125 4.347656 15.652344 L 2 18 L 8 18 L 8 12 L 5.757812 14.242188 C 4.671875 13.160156 4 11.664062 4 10 C 4 6.675781 6.675781 4 10 4 C 13.324219 4 16 6.675781 16 10 C 16 13.324219 13.324219 16 10 16 L 10 18 C 11.949219 18 13.738281 17.296875 15.128906 16.128906 L 16 16.996094 L 16 18 L 20 22 L 22 20 L 18 16 L 16.996094 15.996094 L 16.128906 15.128906 C 17.296875 13.738281 18 11.949219 18 10 C 18 5.59375 14.40625 2 10 2 Z M 10 2 "/>
    </g>
</svg>
